<svg width="40" height="40" viewBox="0 0 40 40" fill="none" xmlns="http://www.w3.org/2000/svg">
<g id="mingcute:edit-line" clip-path="url(#clip0_1662_20732)">
<g id="Group">
<path id="Vector" d="M21.6667 5C22.0915 5.00047 22.5001 5.16313 22.8089 5.45475C23.1178 5.74636 23.3037 6.14492 23.3286 6.56899C23.3535 6.99306 23.2155 7.41063 22.9429 7.73639C22.6702 8.06214 22.2835 8.27149 21.8617 8.32167L21.6667 8.33333H8.33333V31.6667H31.6667V18.3333C31.6671 17.9085 31.8298 17.4999 32.1214 17.1911C32.413 16.8822 32.8116 16.6963 33.2357 16.6714C33.6597 16.6465 34.0773 16.7845 34.4031 17.0571C34.7288 17.3298 34.9382 17.7165 34.9883 18.1383L35 18.3333V31.6667C35.0003 32.5076 34.6827 33.3176 34.1108 33.9342C33.539 34.5509 32.7553 34.9286 31.9167 34.9917L31.6667 35H8.33333C7.49237 35.0003 6.68239 34.6827 6.06575 34.1108C5.44912 33.539 5.07141 32.7553 5.00833 31.9167L5 31.6667V8.33333C4.99973 7.49237 5.31734 6.68239 5.88916 6.06575C6.46098 5.44912 7.24474 5.07141 8.08333 5.00833L8.33333 5H21.6667ZM32.0717 5.57167C32.3716 5.27275 32.7741 5.09921 33.1973 5.08629C33.6206 5.07336 34.0329 5.22203 34.3505 5.50208C34.6681 5.78214 34.8672 6.17259 34.9073 6.59412C34.9475 7.01566 34.8257 7.43668 34.5667 7.77167L34.4283 7.93L17.9283 24.4283C17.6284 24.7272 17.2259 24.9008 16.8027 24.9137C16.3794 24.9266 15.9671 24.778 15.6495 24.4979C15.3319 24.2179 15.1328 23.8274 15.0927 23.4059C15.0525 22.9843 15.1743 22.5633 15.4333 22.2283L15.5717 22.0717L32.0717 5.57167Z" fill="black"/>
</g>
</g>
<defs>
<clipPath id="clip0_1662_20732">
<rect width="40" height="40" fill="white"/>
</clipPath>
</defs>
</svg>
